<svg xmlns="http://www.w3.org/2000/svg" viewBox="0 0 480 300" role="img" aria-label="A dinosaur mascot reviews a grid of student repositories through a magnifying glass, with template and bot commits greyed out">
  <defs>
    <style>
      .cardBg{fill:#F7F9FB;stroke:#1A2421;stroke-opacity:.08;stroke-width:2;}
    </style>
  </defs>

  <circle cx="350" cy="150" r="150" fill="#25C2A0" opacity=".07"/>

  <!-- repo grid -->
  <rect x="230" y="92" width="24" height="24" rx="6" fill="#25C2A0"/>
  <rect x="260" y="92" width="24" height="24" rx="6" fill="#25C2A0"/>
  <rect x="290" y="92" width="24" height="24" rx="6" fill="#25C2A0"/>
  <rect x="320" y="92" width="24" height="24" rx="6" fill="#25C2A0"/>
  <rect x="350" y="92" width="24" height="24" rx="6" fill="#25C2A0"/>
  <rect x="380" y="92" width="24" height="24" rx="6" fill="#25C2A0"/>
  <rect x="410" y="92" width="24" height="24" rx="6" fill="#B9C2C8"/><path d="M417,99 l10,10 M427,99 l-10,10" stroke="#8A949B" stroke-width="2.5" stroke-linecap="round"/>
  <rect x="440" y="92" width="24" height="24" rx="6" fill="#25C2A0"/>
  <rect x="230" y="122" width="24" height="24" rx="6" fill="#25C2A0"/>
  <rect x="260" y="122" width="24" height="24" rx="6" fill="#25C2A0"/>
  <rect x="290" y="122" width="24" height="24" rx="6" fill="#B9C2C8"/><path d="M297,129 l10,10 M307,129 l-10,10" stroke="#8A949B" stroke-width="2.5" stroke-linecap="round"/>
  <rect x="320" y="122" width="24" height="24" rx="6" fill="#25C2A0"/>
  <rect x="350" y="122" width="24" height="24" rx="6" fill="#25C2A0"/>
  <rect x="380" y="122" width="24" height="24" rx="6" fill="#25C2A0"/>
  <rect x="410" y="122" width="24" height="24" rx="6" fill="#38CC6C"/><rect x="408" y="120" width="28" height="28" rx="7" fill="none" stroke="#FFE477" stroke-width="3"/><path d="M416,135 l5,6 l11,-13" fill="none" stroke="#FFFFFF" stroke-width="3" stroke-linecap="round" stroke-linejoin="round"/>
  <rect x="440" y="122" width="24" height="24" rx="6" fill="#25C2A0"/>
  <rect x="230" y="152" width="24" height="24" rx="6" fill="#25C2A0"/>
  <rect x="260" y="152" width="24" height="24" rx="6" fill="#25C2A0"/>
  <rect x="290" y="152" width="24" height="24" rx="6" fill="#25C2A0"/>
  <rect x="320" y="152" width="24" height="24" rx="6" fill="#25C2A0"/>
  <rect x="350" y="152" width="24" height="24" rx="6" fill="#25C2A0"/>
  <rect x="380" y="152" width="24" height="24" rx="6" fill="#25C2A0"/>
  <rect x="410" y="152" width="24" height="24" rx="6" fill="#25C2A0"/>
  <rect x="440" y="152" width="24" height="24" rx="6" fill="#25C2A0"/>
  <rect x="230" y="182" width="24" height="24" rx="6" fill="#25C2A0"/>
  <rect x="260" y="182" width="24" height="24" rx="6" fill="#25C2A0"/>
  <rect x="290" y="182" width="24" height="24" rx="6" fill="#25C2A0"/>
  <rect x="320" y="182" width="24" height="24" rx="6" fill="#25C2A0"/>
  <rect x="350" y="182" width="24" height="24" rx="6" fill="#25C2A0"/>
  <rect x="380" y="182" width="24" height="24" rx="6" fill="#B9C2C8"/><path d="M387,189 l10,10 M397,189 l-10,10" stroke="#8A949B" stroke-width="2.5" stroke-linecap="round"/>
  <rect x="410" y="182" width="24" height="24" rx="6" fill="#25C2A0"/>
  <rect x="440" y="182" width="24" height="24" rx="6" fill="#25C2A0"/>

  <!-- dino, holding a magnifying glass toward the grid -->
  <g transform="translate(24,92) scale(1.05)">
    <path d="M28,142 Q2,150 6,178 Q24,168 40,146 Z" fill="#229953"/>
    <ellipse cx="50" cy="166" rx="17" ry="11" fill="#229953"/>
    <ellipse cx="98" cy="166" rx="17" ry="11" fill="#229953"/>
    <path d="M75,14 C42,14 20,42 18,80 C16,118 34,156 75,162 C116,156 134,118 132,80 C130,42 108,14 75,14 Z" fill="#38CC6C"/>
    <ellipse cx="75" cy="112" rx="30" ry="36" fill="#FFE477"/>
    <ellipse cx="18" cy="106" rx="13" ry="10" fill="#38CC6C" transform="rotate(-20 18 106)"/>
    <ellipse cx="124" cy="94" rx="15" ry="12" fill="#7EE39D"/>
    <circle cx="130" cy="90" r="1.8" fill="#1A2421"/>
    <polygon points="52,20 60,2 66,20" fill="#229953"/>
    <polygon points="68,16 76,-2 82,16" fill="#229953"/>
    <polygon points="84,20 92,4 98,20" fill="#229953"/>
    <circle cx="98" cy="72" r="14" fill="#FFFFFF"/>
    <circle cx="102" cy="72" r="6.5" fill="#1A2421"/>
    <circle cx="104.5" cy="68" r="2" fill="#FFFFFF"/>
    <path d="M104,104 Q112,110 121,102" fill="none" stroke="#1A2421" stroke-width="2.5" stroke-linecap="round"/>
    <!-- raised arm holding magnifying glass -->
    <ellipse cx="128" cy="128" rx="12" ry="9" fill="#38CC6C" transform="rotate(55 128 128)"/>
  </g>

  <!-- magnifying glass held up toward the grid -->
  <g transform="translate(0,-6)">
    <line x1="182" y1="176" x2="205" y2="153" stroke="#229953" stroke-width="9" stroke-linecap="round"/>
    <circle cx="200" cy="122" r="26" fill="#F7F9FB" stroke="#25C2A0" stroke-width="7"/>
    <circle cx="200" cy="122" r="18" fill="none" stroke="#25C2A0" stroke-width="2" opacity=".5"/>
  </g>
</svg>
